<?xml version="1.0" encoding="UTF-8" standalone="no"?>
<!-- Created with Inkscape (http://www.inkscape.org/) -->

<svg
   xmlns:dc="http://purl.org/dc/elements/1.1/"
   xmlns:cc="http://creativecommons.org/ns#"
   xmlns:rdf="http://www.w3.org/1999/02/22-rdf-syntax-ns#"
   xmlns:svg="http://www.w3.org/2000/svg"
   xmlns="http://www.w3.org/2000/svg"
   xmlns:sodipodi="http://sodipodi.sourceforge.net/DTD/sodipodi-0.dtd"
   xmlns:inkscape="http://www.inkscape.org/namespaces/inkscape"
   width="49.03336mm"
   height="37.763657mm"
   viewBox="0 0 173.74025 133.80823"
   id="svg15795"
   version="1.1"
   inkscape:version="0.91 r13725"
   sodipodi:docname="hardhat-remix.svg">
  <defs
     id="defs15797">
    <radialGradient
       inkscape:collect="always"
       r="255.59"
       gradientTransform="matrix(-0.12272793,0,0,0.12272793,-1807.3634,-1063.9497)"
       cx="-464.92001"
       cy="873.19"
       gradientUnits="userSpaceOnUse"
       id="radialGradient3026-9-1">
      <stop
         offset=".5"
         style="stop-color:#ffd046;stop-opacity:1"
         id="stop48-0-2" />
      <stop
         offset="1"
         style="stop-color:#f0a957;stop-opacity:1"
         id="stop50-8-9" />
    </radialGradient>
  </defs>
  <sodipodi:namedview
     id="base"
     pagecolor="#ffffff"
     bordercolor="#666666"
     borderopacity="1.0"
     inkscape:pageopacity="0.0"
     inkscape:pageshadow="2"
     inkscape:zoom="1.4"
     inkscape:cx="-126.0103"
     inkscape:cy="72.032098"
     inkscape:document-units="px"
     inkscape:current-layer="layer1"
     showgrid="false"
     fit-margin-top="0"
     fit-margin-left="0"
     fit-margin-right="0"
     fit-margin-bottom="0"
     inkscape:window-width="2495"
     inkscape:window-height="1416"
     inkscape:window-x="1985"
     inkscape:window-y="24"
     inkscape:window-maximized="1" />
  <metadata
     id="metadata15800">
    <rdf:RDF>
      <cc:Work
         rdf:about="">
        <dc:format>image/svg+xml</dc:format>
        <dc:type
           rdf:resource="http://purl.org/dc/dcmitype/StillImage" />
        <dc:title></dc:title>
      </cc:Work>
    </rdf:RDF>
  </metadata>
  <g
     inkscape:label="Layer 1"
     inkscape:groupmode="layer"
     id="layer1"
     transform="translate(-333.12983,-288.31523)">
    <g
       transform="matrix(3.7795277,0,0,3.7795277,7058.3176,3939.2809)"
       style="display:inline"
       id="g15745">
      <path
         d="m -1764.6075,-935.9985 c 0,0 3.8003,2.04759 9.6285,4.07616 3.5202,1.22728 9.7726,-0.84277 13.0276,-1.70481 3.26,-0.86511 8.8927,-2.65449 7.3298,-4.21743 -1.5631,-1.56257 -6.0571,-4.89537 -6.0571,-4.89537 0,0 4.2789,7.06582 -23.9295,6.74145 z"
         style="fill:#ffffff;stroke:#000000;stroke-width:1.8994602;stroke-linejoin:round;stroke-opacity:1"
         id="path9-1-4"
         inkscape:connector-curvature="0" />
      <path
         inkscape:connector-curvature="0"
         id="path13-3-8"
         style="fill:#ffffff;stroke:#000000;stroke-width:1.8994602;stroke-linejoin:round;stroke-opacity:1"
         d="m -1738.5952,-941.13712 c 0,2.98008 -8.9157,5.39684 -19.915,5.39684 -10.9985,0 -19.9126,-2.41639 -19.9126,-5.39684 2.2937,-1.66297 1.9624,-3.06329 1.9624,-3.06329 l 35.9961,0 c 0,0 -0.3197,1.39983 1.8691,3.06255 z" />
      <path
         d="m -1774.2711,-954.86792 c 0.4453,-1.01594 2.1705,-4.52486 5.6775,-6.995 6.3577,-4.4835 14.2414,-3.62821 18.8768,-0.93691 3.1324,1.82227 5.2903,4.17054 7.0001,7.61821 0.4172,0.84216 1.1951,2.63915 1.7282,5.20993 0.4613,2.22972 0.5058,3.63581 0.58,5.97108 0,1.95125 -3.7069,3.71117 -10.0877,4.56818 -8.93,1.19586 -19.7224,0.15709 -24.1026,-2.3198 -1.2534,-0.70839 -1.8451,-1.46218 -1.8426,-2.19634 0.092,-3.01727 0.204,-6.43549 2.1707,-10.91935 z"
         style="fill:#ffffff;stroke-linejoin:round"
         id="path19-3-0"
         inkscape:connector-curvature="0" />
      <path
         d="m -1774.2711,-954.86792 c 0.4453,-1.01594 2.1705,-4.52486 5.6775,-6.995 6.3577,-4.4835 14.2414,-3.62821 18.8768,-0.93691 3.1324,1.82227 5.2903,4.17054 7.0001,7.61821 0.4172,0.84216 1.1951,2.63915 1.7282,5.20993 0.4613,2.22972 0.5058,3.63581 0.58,5.97108 0,1.95125 -3.7069,3.71117 -10.0877,4.56818 -8.93,1.19586 -19.7224,0.15709 -24.1026,-2.3198 -1.2534,-0.70839 -1.8451,-1.46218 -1.8426,-2.19634 0.092,-3.01727 0.204,-6.43549 2.1707,-10.91935 z"
         style="fill:#74fc00;fill-opacity:1;stroke:#000000;stroke-width:1.8994602;stroke-linejoin:round;stroke-opacity:1"
         id="path23-1-6"
         inkscape:connector-curvature="0" />
      <path
         d="m -1764.7572,-936.08809 c 0,0 3.8014,2.04415 9.6284,4.07591 3.5189,1.22483 9.7706,-0.84277 13.0263,-1.70788 3.2599,-0.86192 8.8934,-2.65141 7.3303,-4.21754 -1.5629,-1.56233 -6.0547,-4.89329 -6.0547,-4.89329 0,0 4.277,7.06618 -23.9307,6.7428 z"
         style="fill:#ffbd34;fill-opacity:1;stroke:#ffbd34;stroke-width:0.63316566;stroke-linejoin:round;stroke-opacity:1"
         id="path27-6-0"
         inkscape:connector-curvature="0" />
      <path
         sodipodi:nodetypes="csccccc"
         inkscape:connector-curvature="0"
         id="path31-3-3"
         style="fill:#ffbd34;fill-opacity:1;stroke:#ffbd34;stroke-width:0.63316566;stroke-linejoin:round;stroke-opacity:1"
         d="m -1738.7453,-941.22671 c 0,2.98032 -8.913,5.39499 -19.9138,5.39499 -10.998,0 -19.9138,-2.41405 -19.9138,-5.39499 2.2952,-1.66272 1.961,-3.06243 1.961,-3.06243 l 35.9986,0 c 0,0 -0.214,1.63369 1.9731,3.29629 z" />
      <path
         d="m -1774.422,-954.95874 c 0.4452,-1.01521 2.1713,-4.52265 5.6774,-6.99513 6.357,-4.48337 14.2401,-3.6271 18.8767,-0.93616 3.1344,1.82238 5.2911,4.17041 6.9995,7.61526 0.418,0.84216 1.1977,2.63915 1.7282,5.21128 0.46,2.22825 0.505,3.63557 0.5804,5.96789 0,1.95137 -3.7087,3.71424 -10.0905,4.5683 -8.9296,1.19893 -19.7211,0.15697 -24.1,-2.31993 -1.2535,-0.70838 -1.8464,-1.45948 -1.8437,-2.19633 0.096,-3.01248 0.2077,-6.43119 2.1721,-10.91518 z"
         style="fill:#ffd520;stroke-linejoin:round"
         id="path37-0-6"
         inkscape:connector-curvature="0" />
      <path
         d="m -1774.422,-954.95874 c 0.4452,-1.01521 2.1713,-4.52265 5.6774,-6.99513 6.357,-4.48337 14.2401,-3.6271 18.8767,-0.93616 3.1344,1.82238 5.2911,4.17041 6.9995,7.61526 0.418,0.84216 1.1977,2.63915 1.7282,5.21128 0.46,2.22825 0.505,3.63557 0.5804,5.96789 0,1.95137 -3.7087,3.71424 -10.0905,4.5683 -8.9296,1.19893 -19.7211,0.15697 -24.1,-2.31993 -1.2535,-0.70838 -1.8464,-1.45948 -1.8437,-2.19633 0.096,-3.01248 0.2077,-6.43119 2.1721,-10.91518 z"
         style="fill:none;stroke:#000000;stroke-width:0.63316566;stroke-linejoin:round"
         id="path41-6-5"
         inkscape:connector-curvature="0" />
      <path
         d="m -1774.422,-954.95874 c 0.4452,-1.01521 2.1713,-4.52265 5.6774,-6.99513 6.357,-4.48337 14.2401,-3.6271 18.8767,-0.93616 3.1344,1.82238 5.2911,4.17041 6.9995,7.61526 0.418,0.84216 1.1977,2.63915 1.7282,5.21128 0.46,2.22825 0.505,3.63557 0.5804,5.96789 0,1.95137 -3.7087,3.71424 -10.0905,4.5683 -8.9296,1.19893 -19.7211,0.15697 -24.1,-2.31993 -1.2535,-0.70838 -1.8464,-1.45948 -1.8437,-2.19633 0.096,-3.01248 0.2077,-6.43119 2.1721,-10.91518 z"
         style="fill:url(#radialGradient3026-9-1);stroke:#fac44b;stroke-linejoin:round;stroke-opacity:1"
         id="path52-0-7"
         inkscape:connector-curvature="0" />
      <path
         d="m -1767.915,-962.62629 c 13.3737,-8.528 26.9474,8.98687 26.5227,20.23415 l 1.2441,0.50196 c -7e-4,-12.25929 -13.2853,-30.32975 -27.7672,-20.73611"
         style="fill:#cccccc;stroke-linejoin:round"
         id="path60-2-9"
         inkscape:connector-curvature="0" />
      <polygon
         transform="matrix(-0.12272793,0,0,0.12272793,-1731.9594,-974.55471)"
         id="polygon62-6-3"
         style="fill:#cccccc;stroke-linejoin:round"
         points="61.197,281.15 66.729,266.15 76.865,262.06 " />
      <path
         d="m -1745.3502,-940.13566 c 0,-11.09583 -6.6212,-28.38329 -18.6117,-24.45845 12.8582,-4.35218 23.8104,11.56833 23.8104,22.70098 l 0.6789,1.84129 -5.2013,1.75427 -0.6765,-1.83772 z"
         style="fill:#ffd467;fill-opacity:1;stroke:none;stroke-width:0.63316566;stroke-linecap:round;stroke-linejoin:round"
         id="path64-7-7"
         inkscape:connector-curvature="0" />
      <path
         d="m -1745.349,-940.13566 0.6782,1.84141 -3.0497,-2.13755 c 0.4259,-11.24802 -6.82,-30.72126 -20.1949,-22.19658 14.4819,-9.59106 22.566,10.23183 22.566,22.49358 z"
         style="fill:#cccccc;stroke-linejoin:round"
         id="path70-9-2"
         inkscape:connector-curvature="0" />
      <path
         d="m -1745.349,-940.13566 0.6782,1.84141 -3.0497,-2.13755 c 0.4259,-11.24802 -6.82,-30.72126 -20.1949,-22.19658 14.4819,-9.59106 22.566,10.23183 22.566,22.49358 z"
         style="fill:#ffbd34;fill-opacity:1;stroke:none;stroke-width:0.63316566;stroke-linecap:round;stroke-linejoin:round"
         id="path74-7-4"
         inkscape:connector-curvature="0" />
      <polygon
         transform="matrix(-0.12272793,0,0,0.12272793,-1731.9594,-974.55471)"
         id="polygon78-8-4"
         style="fill:#ffbd34;fill-opacity:1;stroke:#ffbd34;stroke-width:5.15910006;stroke-linecap:round;stroke-linejoin:round;stroke-opacity:1"
         points="254.68,222.57 265.49,233.41 267.24,277.31 253.03,251.64 " />
      <polygon
         style="stroke-linejoin:round"
         transform="matrix(-0.12272793,0,0,0.12272793,-1731.9594,-974.55471)"
         id="polygon80-2-4"
         points="322.32,217.4 327.99,223.07 329.73,266.98 320.7,241.3 " />
      <path
         inkscape:connector-curvature="0"
         id="path82-9-3"
         style="fill:#ffd467;fill-opacity:1;stroke:#ffd467;stroke-width:0.63316566;stroke-linecap:round;stroke-linejoin:round;stroke-opacity:1"
         d="m -1764.7572,-940.52103 c 0,0 -7.3005,-0.90536 -7.6667,-1.27121 -0.3672,-0.36291 0.2126,-5.38788 0.2126,-5.38788 l 7.6696,1.26802 -0.2155,5.39107 z" />
      <polygon
         transform="matrix(-0.12272793,0,0,0.12272793,-1731.9594,-974.55471)"
         id="polygon84-9-0"
         style="fill:#f4b253;fill-opacity:1;stroke:#f4b253;stroke-width:5.15910006;stroke-linecap:round;stroke-linejoin:round;stroke-opacity:1"
         points="327.99,223.07 317.16,212.24 254.68,222.57 265.49,233.41 " />
    </g>
  </g>
</svg>
